<?xml version="1.0" encoding="utf-8"?>
<!DOCTYPE svg PUBLIC "-//W3C//DTD SVG 1.1//EN" "http://www.w3.org/Graphics/SVG/1.1/DTD/svg11.dtd">
<svg version="1.1" id="Ebene_1" xmlns="http://www.w3.org/2000/svg" xmlns:xlink="http://www.w3.org/1999/xlink" x="0px" y="0px"
	 width="40px" height="61px" viewBox="0 0 40 61" enable-background="new 0 0 40 61" xml:space="preserve">
<g>
	<path fill="#FFFFFF" d="M27.083,38.853c-0.817-0.899-1.831-1.618-3.04-2.158c-1.21-0.539-2.616-0.809-4.218-0.809
		c-1.275,0-2.477,0.221-3.604,0.662c-1.128,0.44-2.108,1.078-2.942,1.912s-1.496,1.839-1.986,3.016
		c-0.49,1.178-0.735,2.501-0.735,3.973c0,1.471,0.245,2.795,0.735,3.972c0.49,1.178,1.16,2.183,2.011,3.017
		c0.85,0.833,1.839,1.471,2.967,1.912s2.346,0.662,3.653,0.662c1.504,0,2.845-0.261,4.021-0.784
		c1.177-0.522,2.166-1.227,2.967-2.109s1.414-1.888,1.84-3.016c0.424-1.128,0.653-2.297,0.687-3.506
		c0.032-1.242-0.147-2.452-0.54-3.63C28.505,40.789,27.9,39.752,27.083,38.853z"/>
	<path fill="#FFFFFF" d="M12,12H0v49h40V0H12V12z M0,0 M40,0 M37,57h-7.465c0,0-0.017-0.226-0.049-0.651
		c-0.033-0.425-0.066-0.767-0.099-1.257s-0.065-0.898-0.098-1.34c-0.033-0.441-0.049-0.715-0.049-0.879
		c-0.49,0.915-1.088,1.706-1.79,2.344c-0.704,0.638-1.472,1.169-2.305,1.577c-0.834,0.409-1.717,0.706-2.648,0.886
		s-1.839,0.271-2.722,0.271c-1.733,0-3.344-0.285-4.831-0.857c-1.487-0.571-2.795-1.404-3.923-2.5
		c-1.128-1.095-2.011-2.419-2.648-3.972c-0.637-1.553-0.956-3.311-0.956-5.272c0-1.928,0.319-3.669,0.956-5.223
		c0.638-1.552,1.521-2.868,2.648-3.947s2.436-1.904,3.923-2.477c1.487-0.571,3.098-0.858,4.831-0.858
		c0.947,0,1.896,0.106,2.844,0.319s1.847,0.539,2.697,0.98s1.618,0.989,2.306,1.643c0.687,0.654,1.241,1.328,1.667,2.211L29.339,33
		H37v3h-5v18h5V57z"/>
</g>
<polygon opacity="0.5" fill="#FFFFFF" points="12,0 12,12 0,12 "/>
</svg>
